ply
format ascii 1.0
comment Created by Blender 2.79 (sub 0) - www.blender.org, source file: ''
element vertex 188
property float x
property float y
property float z
property float nx
property float ny
property float nz
property float s
property float t
element face 316
property list uchar uint vertex_indices
end_header
0.082600 0.012500 -0.000000 0.727928 -0.685629 0.000000 0.472700 0.657300
0.067500 0.012500 0.048700 0.600879 -0.681051 0.418409 0.381100 0.628900
0.067500 0.012500 -0.048700 0.600787 -0.680990 -0.418653 0.564300 0.628900
0.027500 0.012500 0.079300 0.233345 -0.679159 0.695883 0.323700 0.553800
-0.027500 0.012500 -0.079300 -0.226447 -0.685720 -0.691702 0.621700 0.450400
0.027500 0.012500 -0.079300 0.233314 -0.684194 -0.690939 0.621700 0.553800
-0.067700 0.012500 0.049700 -0.600696 -0.678610 0.422651 0.379300 0.375000
-0.027500 0.012500 0.079300 -0.225898 -0.685568 0.692038 0.323700 0.450400
0.068000 0.019000 -0.049100 0.650410 0.607746 -0.455580 0.565100 0.630200
0.068000 0.019000 0.049100 0.650502 0.607837 0.455367 0.380400 0.630200
0.083300 0.019000 -0.000000 0.795801 0.605518 0.000000 0.472700 0.658800
-0.027800 0.019000 -0.080000 -0.252297 0.598865 -0.760033 0.623000 0.450200
0.027800 0.019000 0.079900 0.258034 0.602924 0.754875 0.322500 0.554500
0.027800 0.019000 -0.080000 0.259468 0.597217 -0.758904 0.623000 0.554500
-0.068200 0.019000 0.050100 -0.649922 0.605274 0.459548 0.378500 0.374200
-0.068200 0.019000 -0.050100 -0.649922 0.605274 -0.459548 0.566900 0.374200
-0.067700 0.012500 -0.049700 -0.600696 -0.678610 -0.422651 0.566100 0.375000
-0.083300 0.019000 -0.000000 -0.794488 0.607227 0.000000 0.472700 0.345900
-0.082600 0.012500 -0.000000 -0.726371 -0.687277 0.000000 0.472700 0.346900
-0.027800 0.019000 0.080000 -0.251656 0.598712 0.760369 0.322500 0.450200
-0.026300 -0.000500 0.078000 -0.561968 -0.558367 -0.610187 0.032000 0.480800
0.026300 -0.000500 0.084500 0.572039 -0.613880 0.543931 0.147100 0.480800
-0.026300 -0.000500 0.084500 -0.572039 -0.613880 0.543931 0.032300 0.480800
0.032900 0.194500 0.105600 0.581988 0.539689 0.608264 0.162200 0.981400
-0.032900 0.194500 0.097500 -0.593707 0.592944 -0.543931 0.018400 0.981400
-0.032900 0.194500 0.105600 -0.581988 0.539689 0.608264 0.018700 0.981400
0.032900 0.194500 0.097500 0.593707 0.592944 -0.543931 0.161900 0.981400
0.026300 -0.000500 0.078000 0.561968 -0.558367 -0.610187 0.146800 0.480800
0.028400 -0.000500 0.083800 -0.137059 -0.614734 0.776727 0.861200 0.014200
0.067100 -0.000500 0.047600 0.093326 -0.558550 -0.824183 0.975700 0.014200
0.071000 -0.000500 0.052900 0.783166 -0.613422 0.101627 0.976000 0.014200
0.088700 0.194500 0.066100 0.828425 0.539689 0.149693 0.991100 0.514800
0.030700 0.194500 0.098200 -0.800104 0.592944 -0.090609 0.847300 0.514800
0.035500 0.194500 0.104800 -0.112796 0.539567 0.834315 0.847600 0.514800
0.024500 -0.000500 0.078600 -0.814966 -0.557756 -0.157170 0.860900 0.014200
0.083900 0.194500 0.059500 0.160100 0.593005 -0.789087 0.990800 0.514800
0.072200 -0.000500 0.051100 0.340800 -0.614093 0.711844 0.207500 0.018600
0.082300 -0.000500 -0.000900 -0.407147 -0.558489 -0.722678 0.322600 0.018600
0.088500 -0.000500 0.001100 0.693869 -0.613819 -0.376446 0.321800 0.018600
0.110600 0.194500 0.001300 0.758171 0.539689 -0.365886 0.333700 0.519200
0.082600 0.194500 0.061400 -0.700613 0.593005 0.396802 0.191800 0.519200
0.090300 0.194500 0.063900 0.398938 0.539659 0.741325 0.190900 0.519200
0.066000 -0.000500 0.049100 -0.754051 -0.558061 0.346324 0.208300 0.018600
0.102900 0.194500 -0.001200 -0.334117 0.592883 -0.732688 0.334700 0.519200
0.082300 -0.000500 0.000900 -0.407147 -0.558489 0.722678 0.666700 0.481200
0.072200 -0.000500 -0.051100 0.340800 -0.614093 -0.711844 0.781700 0.482300
0.088500 -0.000500 -0.001100 0.693869 -0.613819 0.376446 0.666700 0.482300
0.110600 0.194500 -0.001300 0.758171 0.539689 0.365886 0.652300 0.981800
0.082600 0.194500 -0.061400 -0.700613 0.593005 -0.396802 0.796100 0.980300
0.102900 0.194500 0.001200 -0.334117 0.592883 0.732688 0.652300 0.980300
0.090300 0.194500 -0.063900 0.398938 0.539659 -0.741325 0.796100 0.981800
0.066000 -0.000500 -0.049100 -0.754051 -0.558061 -0.346324 0.781700 0.481200
0.067100 -0.000500 -0.047600 0.093326 -0.558550 0.824183 0.662900 0.010100
0.028400 -0.000500 -0.083800 -0.137059 -0.614734 -0.776727 0.777900 0.010100
0.071000 -0.000500 -0.052900 0.783166 -0.613422 -0.101627 0.662900 0.010100
0.088700 0.194500 -0.066100 0.828425 0.539689 -0.149693 0.648500 0.510700
0.030700 0.194500 -0.098200 -0.800104 0.592944 0.090609 0.792300 0.510700
0.083900 0.194500 -0.059500 0.160100 0.593005 0.789087 0.648500 0.510700
0.035500 0.194500 -0.104800 -0.112796 0.539567 -0.834315 0.792300 0.510700
0.024500 -0.000500 -0.078600 -0.814966 -0.557756 0.157170 0.777900 0.010100
0.026300 -0.000500 -0.078000 0.561968 -0.558367 0.610187 0.427600 0.012700
-0.026300 -0.000500 -0.084500 -0.572039 -0.613880 -0.543931 0.542600 0.013600
0.026300 -0.000500 -0.084500 0.572039 -0.613880 -0.543931 0.427600 0.013600
-0.032900 0.194500 -0.105600 -0.581988 0.539689 -0.608264 0.557000 0.513300
0.032900 0.194500 -0.097500 0.593707 0.592944 0.543931 0.413200 0.512200
0.032900 0.194500 -0.105600 0.581988 0.539689 -0.608264 0.413200 0.513300
-0.032900 0.194500 -0.097500 -0.593707 0.592944 0.543931 0.557000 0.512200
-0.026300 -0.000500 -0.078000 -0.561968 -0.558367 0.610187 0.542600 0.012700
-0.028400 -0.000500 -0.083800 0.137059 -0.614734 -0.776727 0.208900 0.475500
-0.067100 -0.000500 -0.047600 -0.093326 -0.558550 0.824183 0.324000 0.475000
-0.071000 -0.000500 -0.052900 -0.783166 -0.613422 -0.101627 0.323700 0.475600
-0.088700 0.194500 -0.066100 -0.828425 0.539689 -0.149693 0.337300 0.975600
-0.030700 0.194500 -0.098200 0.800104 0.592944 0.090609 0.194100 0.974700
-0.035500 0.194500 -0.104800 0.112796 0.539567 -0.834315 0.193800 0.975500
-0.024500 -0.000500 -0.078600 0.814966 -0.557756 0.157170 0.209200 0.475000
-0.083900 0.194500 -0.059500 -0.160100 0.593005 0.789087 0.337600 0.974800
-0.072200 -0.000500 -0.051100 -0.340800 -0.614093 -0.711844 0.427800 0.472400
-0.082300 -0.000500 0.000900 0.407147 -0.558489 0.722678 0.542900 0.471800
-0.088500 -0.000500 -0.001100 -0.693869 -0.613819 0.376446 0.542900 0.472400
-0.110600 0.194500 -0.001300 -0.758171 0.539689 0.365886 0.557300 0.972400
-0.082600 0.194500 -0.061400 0.700613 0.593005 -0.396802 0.413500 0.971700
-0.090300 0.194500 -0.063900 -0.398938 0.539659 -0.741325 0.413500 0.972500
-0.066000 -0.000500 -0.049100 0.754051 -0.558061 -0.346324 0.427800 0.471900
-0.102900 0.194500 0.001200 0.334117 0.592883 0.732688 0.557300 0.971700
-0.082300 -0.000500 -0.000900 0.407147 -0.558489 -0.722678 0.863300 0.486700
-0.072200 -0.000500 0.051100 -0.340800 -0.614093 0.711844 0.978300 0.488100
-0.088500 -0.000500 0.001100 -0.693869 -0.613819 -0.376446 0.863300 0.488100
-0.110600 0.194500 0.001300 -0.758171 0.539689 -0.365886 0.848900 0.987300
-0.082600 0.194500 0.061400 0.700613 0.593005 0.396802 0.992700 0.985500
-0.102900 0.194500 -0.001200 0.334117 0.592883 -0.732688 0.848900 0.985500
-0.090300 0.194500 0.063900 -0.398938 0.539659 0.741325 0.992700 0.987300
-0.066000 -0.000500 0.049100 0.754051 -0.558061 0.346324 0.978300 0.486700
-0.067100 -0.000500 0.047600 -0.093326 -0.558550 -0.824183 0.035700 0.008200
-0.028400 -0.000500 0.083800 0.137059 -0.614734 0.776727 0.148800 0.007700
-0.071000 -0.000500 0.052900 -0.783166 -0.613422 0.101627 0.034800 0.007900
-0.088700 0.194500 0.066100 -0.828425 0.539689 0.149693 0.017300 0.507900
-0.030700 0.194500 0.098200 0.800104 0.592944 -0.090609 0.161100 0.508100
-0.083900 0.194500 0.059500 -0.160100 0.593005 -0.789087 0.018500 0.508300
-0.035500 0.194500 0.104800 0.112796 0.539567 0.834315 0.159900 0.507700
-0.024500 -0.000500 0.078600 0.814966 -0.557756 -0.157170 0.149800 0.008000
0.111900 0.178200 -0.000000 0.798639 0.601794 0.000000 0.500000 0.516800
0.089900 0.162000 -0.064700 0.595660 -0.686758 -0.416517 0.644500 0.480000
0.091400 0.178200 -0.065800 0.654286 0.601367 -0.458510 0.644500 0.516800
0.037100 0.178200 -0.107200 0.256569 0.597461 -0.759728 0.780700 0.516800
-0.036400 0.162000 -0.105400 -0.226600 -0.687979 -0.689413 0.924500 0.480000
-0.037000 0.178200 -0.107300 -0.250160 0.596515 -0.762596 0.924500 0.516800
-0.091600 0.178200 -0.067000 -0.655232 0.597308 -0.462447 1.059100 0.516800
-0.111900 0.178200 -0.000000 -0.797754 0.602954 0.000000 -0.205400 0.516800
-0.090000 0.162000 0.065900 -0.593768 -0.686483 0.419691 -0.059100 0.480000
-0.091600 0.178200 0.067000 -0.655232 0.597308 0.462447 -0.059100 0.516800
0.037100 0.178200 0.107200 0.256569 0.597461 0.759728 0.219300 0.516800
-0.036400 0.162000 0.105400 -0.226600 -0.687979 0.689413 0.075500 0.480000
0.036500 0.162000 0.105400 0.233253 -0.684652 0.690481 0.219300 0.480000
0.091400 0.178200 0.065800 0.654286 0.601367 0.458510 0.355500 0.516800
0.036500 0.162000 -0.105400 0.233253 -0.684652 -0.690481 0.780700 0.480000
0.089900 0.162000 0.064700 0.595660 -0.686758 0.416517 0.355500 0.480000
-0.090000 0.162000 -0.065900 -0.593768 -0.686483 -0.419691 1.059100 0.480000
-0.111900 0.178200 -0.000000 -0.797754 0.602954 0.000000 1.205400 0.516800
-0.037000 0.178200 0.107300 -0.250160 0.596515 0.762596 0.075500 0.516800
0.086700 0.162000 -0.062400 -0.545640 -0.746452 0.380840 0.644600 0.480000
0.107900 0.178200 -0.000000 -0.581256 0.813685 0.000000 0.500000 0.516800
0.088200 0.178200 -0.063500 -0.474624 0.815119 0.332041 0.644600 0.516800
0.035200 0.162000 -0.101700 -0.210639 -0.751518 0.625141 0.780700 0.480000
-0.035800 0.178200 -0.103500 0.179998 0.817866 0.546495 0.924600 0.516800
-0.035200 0.162000 -0.101700 0.207465 -0.748253 0.630085 0.924600 0.480000
-0.088300 0.178200 -0.064700 0.470199 0.817713 0.332011 1.059000 0.516800
-0.086800 0.162000 -0.063600 0.540971 -0.749626 0.381268 1.059000 0.480000
-0.086800 0.162000 0.063600 0.540971 -0.749626 -0.381268 -0.059000 0.480000
-0.107900 0.178200 -0.000000 0.583422 0.812128 0.000000 -0.205400 0.516800
-0.088300 0.178200 0.064700 0.470199 0.817713 -0.332011 -0.059000 0.516800
-0.035800 0.178200 0.103500 0.179998 0.817866 -0.546495 0.075400 0.516800
0.035200 0.162000 0.101700 -0.210639 -0.751518 -0.625141 0.219300 0.480000
-0.035200 0.162000 0.101700 0.207465 -0.748253 -0.630085 0.075400 0.480000
0.086700 0.162000 0.062400 -0.545640 -0.746452 -0.380840 0.355400 0.480000
0.035900 0.178200 0.103400 -0.185095 0.818415 -0.543931 0.219300 0.516800
0.088200 0.178200 0.063500 -0.474624 0.815119 -0.332041 0.355400 0.516800
0.035900 0.178200 -0.103400 -0.185095 0.818415 0.543931 0.780700 0.516800
0.106000 0.162000 -0.000000 -0.669240 -0.743004 0.000000 0.500000 0.480000
-0.107900 0.178200 -0.000000 0.583422 0.812128 0.000000 1.205400 0.516800
-0.106000 0.162000 -0.000000 0.671377 -0.741111 0.000000 1.205400 0.480000
0.110000 0.162000 -0.000000 0.724784 -0.688955 0.000000 0.500000 0.480000
-0.110000 0.162000 -0.000000 -0.723685 -0.690115 0.000000 -0.205400 0.480000
-0.106000 0.162000 -0.000000 0.671377 -0.741111 0.000000 -0.205400 0.480000
-0.110000 0.162000 -0.000000 -0.723685 -0.690115 0.000000 1.205400 0.480000
0.093000 0.014100 -0.000000 0.731315 -0.682028 0.000000 0.500000 0.480000
0.077300 0.030400 -0.055600 0.650807 0.608203 -0.454421 0.644500 0.516800
0.094600 0.030400 -0.000000 0.793176 0.608936 0.000000 0.500000 0.516800
0.031400 0.030400 -0.090700 0.255226 0.604938 -0.754204 0.780700 0.516800
-0.030800 0.014100 -0.089200 -0.229011 -0.678884 -0.697562 0.924500 0.480000
-0.031300 0.030400 -0.090700 -0.248024 0.606586 -0.755303 0.924500 0.516800
-0.077500 0.030400 -0.056700 -0.650624 0.604572 -0.459517 1.059100 0.516800
-0.094600 0.030400 -0.000000 -0.791955 0.610523 0.000000 -0.205400 0.516800
-0.076200 0.014100 0.055700 -0.600024 -0.679495 0.422163 -0.059100 0.480000
-0.077500 0.030400 0.056700 -0.650624 0.604572 0.459517 -0.059100 0.516800
0.031400 0.030400 0.090700 0.255226 0.604938 0.754204 0.219300 0.516800
-0.030800 0.014100 0.089200 -0.229011 -0.678884 0.697562 0.075500 0.480000
0.030900 0.014100 0.089200 0.235969 -0.677297 0.696799 0.219300 0.480000
0.077300 0.030400 0.055600 0.650807 0.608203 0.454421 0.355500 0.516800
0.030900 0.014100 -0.089200 0.235969 -0.677297 -0.696799 0.780700 0.480000
-0.076200 0.014100 -0.055700 -0.600024 -0.679495 -0.422163 1.059100 0.480000
-0.094600 0.030400 -0.000000 -0.791955 0.610523 0.000000 1.205400 0.516800
-0.031300 0.030400 0.090700 -0.248024 0.606586 0.755303 0.075500 0.516800
0.073300 0.014100 -0.052800 -0.540147 -0.752281 0.377148 0.644600 0.480000
0.091200 0.030400 -0.000000 -0.590503 0.807001 0.000000 0.500000 0.516800
0.074600 0.030400 -0.053700 -0.480422 0.810389 0.335276 0.644600 0.516800
0.030300 0.030400 -0.087500 -0.185797 0.814234 0.549974 0.780700 0.516800
-0.029800 0.014100 -0.086000 0.205084 -0.754692 0.623157 0.924600 0.480000
0.029800 0.014100 -0.086000 -0.209265 -0.756890 0.619098 0.780700 0.480000
-0.074700 0.030400 -0.054700 0.476974 0.811792 0.336772 1.059000 0.516800
-0.073500 0.014100 -0.053800 0.533891 -0.757225 0.376141 1.059000 0.480000
-0.073500 0.014100 0.053800 0.533891 -0.757225 -0.376141 -0.059000 0.480000
-0.091200 0.030400 -0.000000 0.593249 0.804987 0.000000 -0.205400 0.516800
-0.074700 0.030400 0.054700 0.476974 0.811792 -0.336772 -0.059000 0.516800
-0.030300 0.030400 0.087500 0.182409 0.812403 -0.553789 0.075400 0.516800
0.029800 0.014100 0.086000 -0.209265 -0.756890 -0.619098 0.219300 0.480000
-0.029800 0.014100 0.086000 0.205084 -0.754692 -0.623157 0.075400 0.480000
0.074600 0.030400 0.053700 -0.480422 0.810389 -0.335276 0.355400 0.516800
0.073300 0.014100 0.052800 -0.540147 -0.752281 -0.377148 0.355400 0.480000
0.089700 0.014100 -0.000000 -0.659627 -0.751549 0.000000 0.500000 0.480000
-0.091200 0.030400 -0.000000 0.593249 0.804987 0.000000 1.205400 0.516800
-0.089700 0.014100 -0.000000 0.662374 -0.749138 0.000000 1.205400 0.480000
-0.030300 0.030400 -0.087500 0.182409 0.812403 0.553789 0.924600 0.516800
-0.093000 0.014100 -0.000000 -0.729881 -0.683554 0.000000 -0.205400 0.480000
-0.089700 0.014100 -0.000000 0.662374 -0.749138 0.000000 -0.205400 0.480000
0.030300 0.030400 0.087500 -0.185797 0.814234 -0.549974 0.219300 0.516800
0.076000 0.014100 0.054700 0.600757 -0.680441 0.419538 0.355500 0.480000
0.076000 0.014100 -0.054700 0.600757 -0.680441 -0.419538 0.644500 0.480000
-0.093000 0.014100 -0.000000 -0.729881 -0.683554 0.000000 1.205400 0.480000
3 0 1 2
3 3 4 5
3 6 4 7
3 8 9 10
3 11 12 13
3 14 11 15
3 2 10 0
3 4 13 5
3 15 4 16
3 6 17 18
3 7 12 19
3 1 12 3
3 5 1 3
3 12 8 13
3 5 8 2
3 10 1 0
3 6 18 16
3 15 17 14
3 17 16 18
3 7 14 6
3 20 21 22
3 23 24 25
3 26 20 24
3 24 22 25
3 25 21 23
3 26 21 27
3 28 29 30
3 31 32 33
3 32 29 34
3 32 28 33
3 31 28 30
3 35 30 29
3 36 37 38
3 39 40 41
3 40 37 42
3 40 36 41
3 41 38 39
3 43 38 37
3 44 45 46
3 47 48 49
3 48 44 49
3 49 46 47
3 50 46 45
3 48 45 51
3 52 53 54
3 55 56 57
3 56 52 57
3 57 54 55
3 55 53 58
3 56 53 59
3 60 61 62
3 63 64 65
3 66 60 64
3 64 62 65
3 65 61 63
3 66 61 67
3 68 69 70
3 71 72 73
3 72 69 74
3 72 68 73
3 71 68 70
3 75 70 69
3 76 77 78
3 79 80 81
3 80 77 82
3 80 76 81
3 81 78 79
3 83 78 77
3 84 85 86
3 87 88 89
3 88 84 89
3 89 86 87
3 90 86 85
3 88 85 91
3 92 93 94
3 95 96 97
3 96 92 97
3 97 94 95
3 95 93 98
3 96 93 99
3 100 101 102
3 103 104 105
3 104 106 105
3 107 108 109
3 110 111 112
3 112 113 110
3 102 114 103
3 115 100 113
3 116 117 106
3 109 111 118
3 119 120 121
3 122 123 124
3 124 125 126
3 127 128 129
3 130 131 132
3 133 134 135
3 119 136 122
3 133 120 137
3 126 138 139
3 132 129 130
3 121 100 102
3 119 140 137
3 122 104 114
3 123 103 105
3 123 106 125
3 124 116 104
3 129 107 109
3 127 141 142
3 131 111 132
3 130 110 134
3 134 113 135
3 131 115 112
3 136 102 103
3 122 101 119
3 135 100 120
3 133 140 115
3 125 117 138
3 126 143 116
3 130 109 118
3 132 108 127
3 144 145 146
3 147 148 149
3 148 150 149
3 151 152 153
3 154 155 156
3 156 157 154
3 145 158 147
3 157 144 146
3 159 160 150
3 153 155 161
3 162 163 164
3 165 166 167
3 166 168 169
3 170 171 172
3 173 174 175
3 174 176 177
3 167 164 165
3 177 163 178
3 169 179 180
3 175 172 173
3 164 146 145
3 162 144 178
3 167 148 158
3 165 149 181
3 181 150 168
3 166 159 148
3 172 151 153
3 170 182 183
3 174 155 175
3 184 161 154
3 184 157 176
3 174 185 156
3 165 145 147
3 167 186 162
3 176 146 163
3 177 144 185
3 168 160 179
3 169 187 159
3 173 153 161
3 175 152 170
3 3 7 4
3 6 16 4
3 11 19 12
3 14 19 11
3 2 8 10
3 4 11 13
3 15 11 4
3 6 14 17
3 7 3 12
3 1 9 12
3 5 2 1
3 12 9 8
3 5 13 8
3 10 9 1
3 17 15 16
3 7 19 14
3 20 27 21
3 23 26 24
3 26 27 20
3 24 20 22
3 25 22 21
3 26 23 21
3 28 34 29
3 31 35 32
3 32 35 29
3 32 34 28
3 31 33 28
3 35 31 30
3 36 42 37
3 39 43 40
3 40 43 37
3 40 42 36
3 41 36 38
3 43 39 38
3 44 51 45
3 47 50 48
3 48 51 44
3 49 44 46
3 50 47 46
3 48 50 45
3 52 59 53
3 55 58 56
3 56 59 52
3 57 52 54
3 55 54 53
3 56 58 53
3 60 67 61
3 63 66 64
3 66 67 60
3 64 60 62
3 65 62 61
3 66 63 61
3 68 74 69
3 71 75 72
3 72 75 69
3 72 74 68
3 71 73 68
3 75 71 70
3 76 82 77
3 79 83 80
3 80 83 77
3 80 82 76
3 81 76 78
3 83 79 78
3 84 91 85
3 87 90 88
3 88 91 84
3 89 84 86
3 90 87 86
3 88 90 85
3 92 99 93
3 95 98 96
3 96 99 92
3 97 92 94
3 95 94 93
3 96 98 93
3 100 140 101
3 103 114 104
3 104 116 106
3 107 141 108
3 110 118 111
3 112 115 113
3 102 101 114
3 115 140 100
3 116 143 117
3 109 108 111
3 119 137 120
3 122 136 123
3 124 123 125
3 127 142 128
3 130 134 131
3 133 131 134
3 119 121 136
3 133 135 120
3 126 125 138
3 132 127 129
3 121 120 100
3 119 101 140
3 122 124 104
3 123 136 103
3 123 105 106
3 124 126 116
3 129 128 107
3 127 108 141
3 131 112 111
3 130 118 110
3 134 110 113
3 131 133 115
3 136 121 102
3 122 114 101
3 135 113 100
3 133 137 140
3 125 106 117
3 126 139 143
3 130 129 109
3 132 111 108
3 144 186 145
3 147 158 148
3 148 159 150
3 151 182 152
3 154 161 155
3 156 185 157
3 145 186 158
3 157 185 144
3 159 187 160
3 153 152 155
3 162 178 163
3 165 181 166
3 166 181 168
3 170 183 171
3 173 184 174
3 174 184 176
3 167 162 164
3 177 176 163
3 169 168 179
3 175 170 172
3 164 163 146
3 162 186 144
3 167 166 148
3 165 147 149
3 181 149 150
3 166 169 159
3 172 171 151
3 170 152 182
3 174 156 155
3 184 173 161
3 184 154 157
3 174 177 185
3 165 164 145
3 167 158 186
3 176 157 146
3 177 178 144
3 168 150 160
3 169 180 187
3 173 172 153
3 175 155 152
